<svg xmlns="http://www.w3.org/2000/svg" width="1200" height="800" viewBox="0 0 1200 800" role="img" aria-label="Compliance, governance and confidentiality illustration">
  <defs>
    <linearGradient id="bgc" x1="0" y1="0" x2="1" y2="1">
      <stop offset="0" stop-color="#161c2e"/>
      <stop offset="1" stop-color="#1c2340"/>
    </linearGradient>
    <radialGradient id="glowc" cx="60%" cy="20%" r="70%">
      <stop offset="0" stop-color="#e11d2e" stop-opacity=".22"/>
      <stop offset="1" stop-color="#e11d2e" stop-opacity="0"/>
    </radialGradient>
    <filter id="shadowc" x="-20%" y="-20%" width="140%" height="140%">
      <feDropShadow dx="0" dy="22" stdDeviation="22" flood-color="#000" flood-opacity=".55"/>
    </filter>
  </defs>

  <!-- lighter panel background -->
  <rect width="1200" height="800" rx="36" fill="url(#bgc)"/>
  <rect width="1200" height="800" rx="36" fill="url(#glowc)"/>

  <!-- Main card -->
  <g filter="url(#shadowc)">
    <rect x="140" y="130" width="920" height="540" rx="28" fill="#111735" stroke="#2e3a66" stroke-width="2"/>

    <!-- Shield -->
    <path d="M600 210
             C690 250 770 260 820 270
             C820 450 740 560 600 610
             C460 560 380 450 380 270
             C430 260 510 250 600 210 Z"
          fill="#1a2144" stroke="#3b4a80" stroke-width="2"/>

    <!-- Lock -->
    <g>
      <rect x="520" y="360" width="160" height="150" rx="20" fill="#0f1428" stroke="#3b4a80" stroke-width="2"/>
      <path d="M560 360 v-40
               c0-44 80-44 80 0 v40"
            fill="none" stroke="#ff3b4d" stroke-width="12" stroke-linecap="round"/>
      <circle cx="600" cy="435" r="16" fill="#e11d2e"/>
      <rect x="592" y="445" width="16" height="40" rx="8" fill="#e11d2e"/>
    </g>

    <!-- Audit lines -->
    <g opacity=".85">
      <rect x="190" y="210" width="250" height="18" rx="9" fill="#2e3a66"/>
      <rect x="190" y="240" width="320" height="18" rx="9" fill="#2e3a66"/>
      <rect x="190" y="270" width="210" height="18" rx="9" fill="#2e3a66"/>

      <rect x="760" y="210" width="250" height="18" rx="9" fill="#2e3a66"/>
      <rect x="690" y="240" width="320" height="18" rx="9" fill="#2e3a66"/>
      <rect x="810" y="270" width="200" height="18" rx="9" fill="#2e3a66"/>
    </g>

    <!-- Status dots -->
    <circle cx="1035" cy="165" r="7" fill="#e11d2e"/>
    <circle cx="1010" cy="165" r="7" fill="#2e3a66"/>
    <circle cx="985" cy="165" r="7" fill="#2e3a66"/>
  </g>

  <text x="140" y="720" fill="#cfd6ff"
        font-family="ui-sans-serif, system-ui, -apple-system, Segoe UI, Roboto, Arial"
        font-size="26">
    Confidentiality • Auditability • Operational governance
  </text>
</svg>
